<svg width="50" height="50" viewBox="0 0 50 50" fill="none" xmlns="http://www.w3.org/2000/svg">
<circle cx="25" cy="25" r="25" fill="#F2F6EE"/>
<g clip-path="url(#clip0_826_2499)">
<path d="M19.4444 20L24.9999 23.3333L29.9999 20.5556L33.3333 22.7778L32.2222 27.2222L29.9999 32.2222L29.4444 36.6667L21.6666 37.2222L20.5555 34.4444L19.4444 30L17.2222 26.1111V22.7778L19.4444 20Z" fill="#7EA259"/>
<path d="M22.1563 26.5105C22.1563 26.6658 22.0303 26.7917 21.875 26.7917C21.7197 26.7917 21.5937 26.6658 21.5937 26.5105C21.5937 26.3552 21.7197 26.2292 21.875 26.2292C22.0303 26.2292 22.1563 26.3552 22.1563 26.5105Z" fill="white" stroke="white" stroke-width="0.999998"/>
<path d="M28.4063 26.5105C28.4063 26.6658 28.2803 26.7917 28.125 26.7917C27.9697 26.7917 27.8437 26.6658 27.8437 26.5105C27.8437 26.3552 27.9697 26.2292 28.125 26.2292C28.2803 26.2292 28.4063 26.3552 28.4063 26.5105Z" fill="white" stroke="white" stroke-width="0.999998"/>
<mask id="path-5-inside-1_826_2499" fill="white">
<path d="M38.0367 21.2103L33.5843 17.6875C33.4664 16.0711 32.1145 14.7917 30.4686 14.7917C30.3305 14.7917 30.1928 14.8011 30.056 14.8198C29.5707 13.9598 28.6992 13.3685 27.7082 13.2508C27.1605 12.285 26.1314 11.6667 24.9999 11.6667C23.8684 11.6667 22.8393 12.285 22.2916 13.2508C21.3007 13.3685 20.429 13.9599 19.9437 14.8198C19.807 14.8011 19.6691 14.7917 19.5311 14.7917C17.8852 14.7917 16.5333 16.0711 16.4154 17.6875L11.963 21.2103C11.8639 21.2887 11.7853 21.39 11.7339 21.5055C11.6826 21.621 11.66 21.7472 11.6681 21.8733C11.6763 21.9994 11.7149 22.1217 11.7807 22.2296C11.8465 22.3375 11.9374 22.4279 12.0458 22.4929C13.3335 23.2655 14.8702 23.5454 16.4061 23.2037V25.6593C16.4061 26.3554 16.5927 27.0404 16.9433 27.6361L19.1039 31.3604C19.3073 31.7065 19.4186 32.0989 19.4271 32.5003L19.4677 34.4561C19.5121 36.594 21.264 38.3334 23.3731 38.3334H26.6287C28.7362 38.3334 30.4882 36.5953 30.534 34.4589L30.5765 32.4807C30.5856 32.0774 30.6982 31.6832 30.9034 31.336L33.0517 27.6421C33.4064 27.0408 33.5935 26.3555 33.5936 25.6575V23.2037C35.0733 23.5328 36.6167 23.2953 37.9539 22.4929C38.0623 22.4279 38.1532 22.3375 38.219 22.2296C38.2848 22.1217 38.3234 21.9994 38.3315 21.8733C38.3397 21.7472 38.3171 21.621 38.2657 21.5055C38.2144 21.3901 38.1358 21.2888 38.0367 21.2103ZM19.5311 16.3542C19.7259 16.3542 19.9211 16.393 20.1115 16.4694C20.5451 16.6435 21.0346 16.4001 21.1567 15.9485C21.3387 15.2757 21.9426 14.8034 22.6305 14.7919C23.0957 14.8569 23.4187 14.6096 23.533 14.2815C23.7523 13.6521 24.3417 13.2292 24.9999 13.2292C25.658 13.2292 26.2475 13.6521 26.4667 14.2815C26.5764 14.5962 26.8894 14.8591 27.3692 14.792C28.0572 14.8034 28.661 15.2758 28.843 15.9485C28.9651 16.3997 29.4541 16.6437 29.8882 16.4694C30.0786 16.393 30.2739 16.3542 30.4686 16.3542C31.3302 16.3542 32.0311 17.0552 32.0311 17.9167C32.0311 18.7032 31.447 19.3555 30.6898 19.4633C30.5673 19.4362 30.4401 19.439 30.3189 19.4715C30.1741 19.4568 30.0299 19.4209 29.8882 19.364C29.7858 19.3229 29.6759 19.304 29.5656 19.3084C29.4554 19.3129 29.3474 19.3406 29.2486 19.3898C29.1499 19.439 29.0627 19.5086 28.9928 19.5939C28.9228 19.6793 28.8718 19.7785 28.843 19.885C28.6647 20.5438 28.0583 21.0762 27.2502 21.0291C27.0805 21.0191 26.9121 21.0648 26.7707 21.1591C26.6294 21.2535 26.5226 21.3914 26.4667 21.552C26.2475 22.1814 25.658 22.6042 24.9999 22.6042C24.3417 22.6042 23.7523 22.1814 23.533 21.5519C23.4209 21.2298 23.1039 20.9752 22.6305 21.0415C21.9425 21.03 21.3387 20.5577 21.1567 19.885C21.1279 19.7785 21.0769 19.6793 21.007 19.5939C20.937 19.5086 20.8498 19.439 20.7511 19.3898C20.6523 19.3406 20.5443 19.3128 20.434 19.3084C20.3238 19.3039 20.2139 19.3229 20.1115 19.364C19.9699 19.4209 19.8255 19.4568 19.6808 19.4715C19.5596 19.4391 19.4325 19.4362 19.31 19.4633C18.5528 19.3555 17.9686 18.7032 17.9686 17.9167C17.9686 17.0552 18.6696 16.3542 19.5311 16.3542ZM13.9529 21.6283L16.7778 19.3932C17.0691 19.9337 17.5121 20.3771 18.0523 20.6689C17.001 21.5719 15.4648 22.045 13.9529 21.6283ZM32.0311 25.6575C32.0311 26.076 31.9187 26.4878 31.7036 26.8524L29.5553 30.5463C29.2155 31.1232 29.0293 31.7777 29.0145 32.4471L28.972 34.4254C28.9442 35.7187 27.893 36.7709 26.6288 36.7709H25.7811V35.0219C26.6904 34.6994 27.3436 33.831 27.3436 32.8125C27.3436 32.3811 26.9938 32.0313 26.5624 32.0313C26.1309 32.0313 25.7811 32.3811 25.7811 32.8125C25.7811 33.2433 25.4306 33.5938 24.9999 33.5938C24.5691 33.5938 24.2186 33.2433 24.2186 32.8125C24.2186 32.3811 23.8688 32.0313 23.4374 32.0313C23.0059 32.0313 22.6561 32.3811 22.6561 32.8125C22.6561 33.831 23.3093 34.6994 24.2186 35.0219V36.7709H23.3732C22.108 36.7709 21.0568 35.7179 21.03 34.4237L20.9894 32.4679C20.9755 31.8005 20.7893 31.1435 20.4531 30.5721L18.2924 26.8479C18.0805 26.4876 17.9688 26.0773 17.9687 25.6593V22.6201C18.7061 22.2222 19.3584 21.6761 19.8671 21.0228C19.8926 21.02 19.9183 21.0172 19.9438 21.0137C20.429 21.8736 21.3008 22.4651 22.2916 22.5827C22.8393 23.5485 23.8684 24.1667 24.9999 24.1667C26.1314 24.1667 27.1605 23.5485 27.7082 22.5827C28.6991 22.465 29.5707 21.8736 30.056 21.0137C30.0815 21.0171 30.1071 21.02 30.1327 21.0228C30.6414 21.6761 31.2937 22.2222 32.0311 22.6201V25.6575ZM31.9475 20.6689C32.4876 20.3771 32.9306 19.9337 33.2219 19.3932L36.0469 21.6283C34.5346 22.0449 32.9986 21.5718 31.9475 20.6689Z"/>
</mask>
<path d="M38.0367 21.2103L33.5843 17.6875C33.4664 16.0711 32.1145 14.7917 30.4686 14.7917C30.3305 14.7917 30.1928 14.8011 30.056 14.8198C29.5707 13.9598 28.6992 13.3685 27.7082 13.2508C27.1605 12.285 26.1314 11.6667 24.9999 11.6667C23.8684 11.6667 22.8393 12.285 22.2916 13.2508C21.3007 13.3685 20.429 13.9599 19.9437 14.8198C19.807 14.8011 19.6691 14.7917 19.5311 14.7917C17.8852 14.7917 16.5333 16.0711 16.4154 17.6875L11.963 21.2103C11.8639 21.2887 11.7853 21.39 11.7339 21.5055C11.6826 21.621 11.66 21.7472 11.6681 21.8733C11.6763 21.9994 11.7149 22.1217 11.7807 22.2296C11.8465 22.3375 11.9374 22.4279 12.0458 22.4929C13.3335 23.2655 14.8702 23.5454 16.4061 23.2037V25.6593C16.4061 26.3554 16.5927 27.0404 16.9433 27.6361L19.1039 31.3604C19.3073 31.7065 19.4186 32.0989 19.4271 32.5003L19.4677 34.4561C19.5121 36.594 21.264 38.3334 23.3731 38.3334H26.6287C28.7362 38.3334 30.4882 36.5953 30.534 34.4589L30.5765 32.4807C30.5856 32.0774 30.6982 31.6832 30.9034 31.336L33.0517 27.6421C33.4064 27.0408 33.5935 26.3555 33.5936 25.6575V23.2037C35.0733 23.5328 36.6167 23.2953 37.9539 22.4929C38.0623 22.4279 38.1532 22.3375 38.219 22.2296C38.2848 22.1217 38.3234 21.9994 38.3315 21.8733C38.3397 21.7472 38.3171 21.621 38.2657 21.5055C38.2144 21.3901 38.1358 21.2888 38.0367 21.2103ZM19.5311 16.3542C19.7259 16.3542 19.9211 16.393 20.1115 16.4694C20.5451 16.6435 21.0346 16.4001 21.1567 15.9485C21.3387 15.2757 21.9426 14.8034 22.6305 14.7919C23.0957 14.8569 23.4187 14.6096 23.533 14.2815C23.7523 13.6521 24.3417 13.2292 24.9999 13.2292C25.658 13.2292 26.2475 13.6521 26.4667 14.2815C26.5764 14.5962 26.8894 14.8591 27.3692 14.792C28.0572 14.8034 28.661 15.2758 28.843 15.9485C28.9651 16.3997 29.4541 16.6437 29.8882 16.4694C30.0786 16.393 30.2739 16.3542 30.4686 16.3542C31.3302 16.3542 32.0311 17.0552 32.0311 17.9167C32.0311 18.7032 31.447 19.3555 30.6898 19.4633C30.5673 19.4362 30.4401 19.439 30.3189 19.4715C30.1741 19.4568 30.0299 19.4209 29.8882 19.364C29.7858 19.3229 29.6759 19.304 29.5656 19.3084C29.4554 19.3129 29.3474 19.3406 29.2486 19.3898C29.1499 19.439 29.0627 19.5086 28.9928 19.5939C28.9228 19.6793 28.8718 19.7785 28.843 19.885C28.6647 20.5438 28.0583 21.0762 27.2502 21.0291C27.0805 21.0191 26.9121 21.0648 26.7707 21.1591C26.6294 21.2535 26.5226 21.3914 26.4667 21.552C26.2475 22.1814 25.658 22.6042 24.9999 22.6042C24.3417 22.6042 23.7523 22.1814 23.533 21.5519C23.4209 21.2298 23.1039 20.9752 22.6305 21.0415C21.9425 21.03 21.3387 20.5577 21.1567 19.885C21.1279 19.7785 21.0769 19.6793 21.007 19.5939C20.937 19.5086 20.8498 19.439 20.7511 19.3898C20.6523 19.3406 20.5443 19.3128 20.434 19.3084C20.3238 19.3039 20.2139 19.3229 20.1115 19.364C19.9699 19.4209 19.8255 19.4568 19.6808 19.4715C19.5596 19.4391 19.4325 19.4362 19.31 19.4633C18.5528 19.3555 17.9686 18.7032 17.9686 17.9167C17.9686 17.0552 18.6696 16.3542 19.5311 16.3542ZM13.9529 21.6283L16.7778 19.3932C17.0691 19.9337 17.5121 20.3771 18.0523 20.6689C17.001 21.5719 15.4648 22.045 13.9529 21.6283ZM32.0311 25.6575C32.0311 26.076 31.9187 26.4878 31.7036 26.8524L29.5553 30.5463C29.2155 31.1232 29.0293 31.7777 29.0145 32.4471L28.972 34.4254C28.9442 35.7187 27.893 36.7709 26.6288 36.7709H25.7811V35.0219C26.6904 34.6994 27.3436 33.831 27.3436 32.8125C27.3436 32.3811 26.9938 32.0313 26.5624 32.0313C26.1309 32.0313 25.7811 32.3811 25.7811 32.8125C25.7811 33.2433 25.4306 33.5938 24.9999 33.5938C24.5691 33.5938 24.2186 33.2433 24.2186 32.8125C24.2186 32.3811 23.8688 32.0313 23.4374 32.0313C23.0059 32.0313 22.6561 32.3811 22.6561 32.8125C22.6561 33.831 23.3093 34.6994 24.2186 35.0219V36.7709H23.3732C22.108 36.7709 21.0568 35.7179 21.03 34.4237L20.9894 32.4679C20.9755 31.8005 20.7893 31.1435 20.4531 30.5721L18.2924 26.8479C18.0805 26.4876 17.9688 26.0773 17.9687 25.6593V22.6201C18.7061 22.2222 19.3584 21.6761 19.8671 21.0228C19.8926 21.02 19.9183 21.0172 19.9438 21.0137C20.429 21.8736 21.3008 22.4651 22.2916 22.5827C22.8393 23.5485 23.8684 24.1667 24.9999 24.1667C26.1314 24.1667 27.1605 23.5485 27.7082 22.5827C28.6991 22.465 29.5707 21.8736 30.056 21.0137C30.0815 21.0171 30.1071 21.02 30.1327 21.0228C30.6414 21.6761 31.2937 22.2222 32.0311 22.6201V25.6575ZM31.9475 20.6689C32.4876 20.3771 32.9306 19.9337 33.2219 19.3932L36.0469 21.6283C34.5346 22.0449 32.9986 21.5718 31.9475 20.6689Z" fill="#7EA259" stroke="#7EA259" stroke-width="2" mask="url(#path-5-inside-1_826_2499)"/>
<path d="M25.7812 35.0219V36.7708H24.2187V35.0219C23.3094 34.6994 22.6562 33.831 22.6562 32.8125C22.6562 32.381 23.006 32.0312 23.4375 32.0312C23.869 32.0312 24.2187 32.381 24.2187 32.8125C24.2187 33.2433 24.5692 33.5937 25 33.5937C25.4308 33.5937 25.7812 33.2433 25.7812 32.8125C25.7812 32.381 26.131 32.0312 26.5625 32.0312C26.994 32.0312 27.3437 32.381 27.3437 32.8125C27.3437 33.831 26.6906 34.6994 25.7812 35.0219Z" fill="white"/>
</g>
<defs>
<clipPath id="clip0_826_2499">
<rect width="26.6667" height="26.6667" fill="white" transform="translate(11.6665 11.6667)"/>
</clipPath>
</defs>
</svg>
